<svg xmlns="http://www.w3.org/2000/svg" width="800px" height="800px" viewBox="0 0 64 64"><defs><style>.cls-3{fill:#748a95}.cls-4{fill:#f0f4f7}.cls-8{fill:#617880}</style></defs><g id="Shop"><path id="rect6072-0" d="M49.6 30.09v22.62l-16.67 2.07-18.53-2.07V30.09Z" style="fill:#e0e9ee"/><path id="path570894" d="M46.69 30.09v22.62h2.91V30.09Z" style="fill:#d0e1e8"/><path id="path140620-1-2-3-3" d="M9.65 52.71h44.7a1.65 1.65 0 1 1 0 3.29H9.65a1.65 1.65 0 1 1 0-3.29" class="cls-3"/><path id="path554556" d="M25.33 8h-5a2.46 2.46 0 0 0-2.47 2.47v6.09L33 20.26l13.16-3.7v-6.09A2.46 2.46 0 0 0 43.71 8h-1.47l-1.73 1-1.44-1h-5.13L30 9.11Z" class="cls-3"/><path id="path128784-6-0-2-4-7-1-2-6-6" d="M33.94 8v7.13a1.44 1.44 0 0 1-2.87 0V11.9a1.44 1.44 0 0 0-2.87 0 1.44 1.44 0 1 1-2.87 0V8Z" class="cls-4"/><path id="rect4203-9" d="M43.51 33a3.84 3.84 0 0 0 7.67 0v-4.7a8.44 8.44 0 0 0-1-3.9l-4-7.82h-5.67L38 18.86l-3.16-2.3h-5.68l-3.74 1.85-1.93-1.85h-5.67l-4.05 7.82a8.44 8.44 0 0 0-.95 3.9V33a3.84 3.84 0 0 0 7.67 0h7.67a3.84 3.84 0 0 0 7.68 0Z" style="fill:#f6e782"/><path id="path5151-0" d="m23.49 16.56-3 9.66V33a3.84 3.84 0 0 0 7.67 0v-6.78l1-9.66Zm11.35 0 1 9.66V33a3.84 3.84 0 0 0 7.67 0v-6.78l-3-9.66Z" style="fill:#dd5891"/><path id="rect6501-6" d="M26 40.84h18.48a1.61 1.61 0 0 1 1.62 1.62v3.22a1.62 1.62 0 0 1-1.62 1.62H26l-1.56-2.92Z" style="fill:#94d8e5"/><path id="rect6476-9" d="M21.24 40.84H26v11.87h-6.6v-10a1.84 1.84 0 0 1 1.84-1.87" class="cls-8"/><path id="path577397" d="M49.88 52.71a1.65 1.65 0 0 1 0 3.29h4.47a1.65 1.65 0 1 0 0-3.29Z" class="cls-8"/><path id="path587337" d="m43.32 16.56 4 7.82a8.44 8.44 0 0 1 1 3.9V33a3.83 3.83 0 0 1-2.4 3.56 3.8 3.8 0 0 0 1.43.27A3.82 3.82 0 0 0 51.18 33v-4.7a8.44 8.44 0 0 0-1-3.9l-4-7.82Z" style="fill:#f5d96d"/><path id="path589951" d="M46.18 16.56v-6.09A2.46 2.46 0 0 0 43.71 8h-2.16l-.12.07a2.46 2.46 0 0 1 1.92 2.4v6.09Z" class="cls-8"/><path id="rect8129-3" d="M42.24 8v4.33a1.59 1.59 0 0 1-3.17 0V8Z" class="cls-4"/><path id="path606856" d="M41.6 40.84a1.61 1.61 0 0 1 1.62 1.62v3.22a1.62 1.62 0 0 1-1.62 1.62h2.88a1.62 1.62 0 0 0 1.62-1.62v-3.22a1.61 1.61 0 0 0-1.62-1.62Z" style="fill:#7bd1e0"/><path d="M12.35 21a1 1 0 0 0 1.36-.37 1 1 0 0 0-.36-1.37l-.35-.18a1 1 0 1 0-1 1.73ZM7.8 18.36a.93.93 0 0 0 .5.14 1 1 0 0 0 .51-1.87l-.31-.17a1 1 0 0 0-1.37.36 1 1 0 0 0 .37 1.37Zm-.67 2.26A1 1 0 0 0 8.5 21l.3-.18a1 1 0 0 0-1-1.73l-.31.17a1 1 0 0 0-.36 1.36m5.22-4.16-.31.17a1 1 0 0 0 1 1.74l.31-.18a1 1 0 0 0 .36-1.37 1 1 0 0 0-1.36-.36m-2.93 5.06a1 1 0 0 0 2 0v-.35a1 1 0 0 0-2 0Zm0-5.6v.36a1 1 0 0 0 2 0v-.36a1 1 0 0 0-2 0"/><path d="M54.35 51.71H50.6V36.53A4.77 4.77 0 0 0 52.18 33v-4.7a9.6 9.6 0 0 0-1.06-4.36l-3.94-7.6v-5.87A3.47 3.47 0 0 0 43.71 7H20.29a3.47 3.47 0 0 0-3.47 3.47v5.85l-3.94 7.6a9.6 9.6 0 0 0-1.06 4.36V33a4.77 4.77 0 0 0 1.58 3.55v15.16H9.65a2.65 2.65 0 1 0 0 5.29h44.7a2.65 2.65 0 1 0 0-5.29M13.82 33v-4.7a8 8 0 0 1 .08-1.06h5.59V33a2.84 2.84 0 0 1-5.67 0m7.67-5.76h5.67V33a2.84 2.84 0 0 1-5.67 0Zm6.57-9.66-.8 7.66h-5.41l2.38-7.66Zm4-2.44V11.9a2.44 2.44 0 0 0-4.87 0 .44.44 0 1 1-.87 0V9h6.61v6.12a.44.44 0 1 1-.87 0Zm7.7 2.44 2.38 7.66h-5.4l-.8-7.66Zm-5.84 0 .8 7.66h-5.45l.8-7.66Zm-4.77 9.66h5.68V33a2.84 2.84 0 0 1-5.68 0Zm7.68 0h5.67V33a2.84 2.84 0 0 1-5.67 0Zm7.67 0h5.6a8 8 0 0 1 .08 1.06V33a2.84 2.84 0 0 1-5.67 0Zm4.83-2.38c.07.12.11.25.17.38h-5.25l-2.38-7.66h3.7Zm-4.15-14.39v5.09H34.9a3 3 0 0 0 0-.44V9h3.13v3.33a2.59 2.59 0 0 0 5.17 0V9h.47a1.47 1.47 0 0 1 1.51 1.47M40.07 9h1.17v3.33a.59.59 0 0 1-1.17 0ZM20.29 9h4v2.9a2.44 2.44 0 1 0 4.87 0 .44.44 0 0 1 .87 0v3.22a2 2 0 0 0 .05.44H18.82v-5.09A1.47 1.47 0 0 1 20.29 9m-1.86 8.56h3.7l-2.38 7.66h-5.26c.06-.13.1-.26.17-.38Zm-3 20.07a4.7 4.7 0 0 0 1.25.18 4.82 4.82 0 0 0 3.84-1.89 4.84 4.84 0 0 0 7.67 0 4.85 4.85 0 0 0 7.68 0 4.84 4.84 0 0 0 7.67 0 4.82 4.82 0 0 0 3.84 1.89 4.7 4.7 0 0 0 1.25-.18v14.08H27V48.3h17.48a2.62 2.62 0 0 0 2.62-2.62v-3.22a2.62 2.62 0 0 0-2.62-2.62H21.24a2.85 2.85 0 0 0-2.85 2.84v9h-3Zm23.34 4.21v4.46h-5.42v-4.46Zm5.74 0a.62.62 0 0 1 .62.62v3.22a.62.62 0 0 1-.62.62h-3.77v-4.46ZM31.35 46.3H27v-4.46h4.36ZM25 51.71h-4.6v-9a.85.85 0 0 1 .85-.84H25ZM54.35 55H9.65a.65.65 0 1 1 0-1.29h44.7a.65.65 0 1 1 0 1.29"/><circle cx="53.51" cy="21.06" r="1.25"/><circle cx="10.86" cy="44.24" r="1.25"/><path d="m55.19 12.89.31.17a.93.93 0 0 0 .5.14 1 1 0 0 0 .5-1.87l-.31-.17a1 1 0 0 0-1.36.36 1 1 0 0 0 .36 1.37m-4.9-3.99a1 1 0 0 0 .36 1.37l.31.17a1 1 0 0 0 .5.14A1 1 0 0 0 52 8.71l-.31-.18a1 1 0 0 0-1.4.37m.71 2.26-.31.17a1 1 0 0 0 .5 1.87.9.9 0 0 0 .5-.14l.31-.17a1 1 0 0 0 .36-1.37 1 1 0 0 0-1.36-.36m4.69-.58a1 1 0 0 0 .5-.14l.31-.17a1 1 0 1 0-1-1.74l-.31.18a1 1 0 0 0-.36 1.37 1 1 0 0 0 .86.5m-2.11 1.67a1 1 0 0 0-1 1v.36a1 1 0 0 0 1 1 1 1 0 0 0 1-1v-.35a1 1 0 0 0-1-1.01m0-5.25a1 1 0 0 0-1 1v.35a1 1 0 1 0 2 0V8a1 1 0 0 0-1-1"/></g></svg>